<?xml version="1.0" encoding="UTF-8"?>
<svg id="okojoicon" xmlns="http://www.w3.org/2000/svg" viewBox="0 0 150 150">
  <defs>
    <style>
      .cls-1 {
        fill: #050505;
      }

      .cls-1, .cls-2, .cls-3, .cls-4, .cls-5 {
        stroke-width: 0px;
      }

      .cls-2 {
        fill: #ececec;
      }

      .cls-4 {
        fill: #ededed;
      }

      .cls-5 {
        fill: #e1b4d4;
      }
    </style>
  </defs>
  <path class="cls-3" d="m101.42,46.01l4.27-6.35c1.18-1.75,2.31-3.58,3.79-5.1s3.37-2.73,5.51-2.58c1.76.12,3.01,1.29,3.8,2.79s1.14,3.25,1.34,4.92c.3,2.48.4,4.99.35,7.48-.09,4.88-.84,9.7-2.17,14.39l2.95.4c-.11-1.34-.22-2.68-.33-4.01-.16-1.91-3.16-1.93-3,0,.11,1.34.22,2.68.33,4.01.14,1.63,2.46,2.11,2.95.4,1.21-4.26,1.95-8.65,2.2-13.08.23-4.08.19-8.39-.72-12.4-.7-3.11-2.3-6.25-5.44-7.45-3.62-1.39-7.53.52-10.03,3.15-1.53,1.62-2.74,3.52-3.98,5.36l-4.41,6.55c-1.08,1.61,1.52,3.11,2.59,1.51h0Z"/>
  <path class="cls-3" d="m61.22,36.47c12.66-5.48,27.74-4.58,39.73,2.2,1.68.95,3.2-1.64,1.51-2.59-13-7.36-29.07-8.13-42.76-2.2-1.77.76-.24,3.35,1.51,2.59h0Z"/>
  <path class="cls-3" d="m102.01,76.51c-.97,2.31-.63,5.15.81,7.19.4.57,1,.85,1.69.69,2.89-.69,4.16-4.37,2.28-6.66-1.77-2.16-5.34-2-6.75.46-1.31,2.27-.32,5.31,2.28,6.04,2.17.61,4.84-.5,5.82-2.56,1.42-3.02-.24-6.35-2.76-8.17-.69-.49-1.64-.08-2.05.54-1.13,1.68-2.15,3.72-1.6,5.79s2.4,3.53,4.5,3.13c1.95-.37,3.2-2.47,3.04-4.36s-1.31-3.5-2.98-4.24-3.8-.51-5.34.6c-1.66,1.19-2.6,3.02-2.65,5.06-.05,1.88.68,4.07,2.13,5.32s3.38,1.46,4.86.22c1.03-.87,1.47-2.25,1.94-3.46.06-.16.12-.32.19-.49.02-.05.04-.1.06-.14.07-.18-.13.28,0,.03.13-.29.27-.57.44-.84.08-.12.35-.41.07-.12.1-.1.19-.2.28-.3.04-.04.2-.18.02-.03-.19.16.03-.02.07-.04.05-.03.11-.06.16-.09.22-.16-.3.11-.02,0,.77-.26,1.27-1.03,1.05-1.85-.2-.74-1.08-1.31-1.85-1.05-2.16.75-2.84,2.85-3.6,4.78-.04.1-.08.19-.11.28.11-.27.04-.09-.03.05-.09.19-.18.37-.28.55-.05.08-.1.16-.14.23-.01.02-.09.15-.1.15-.03,0,.23-.24.1-.13-.06.05-.12.13-.17.19-.2.22.2-.1.01,0-.02,0-.21.12-.21.12,0-.04.38-.11.13-.05-.04,0-.09.02-.12.04-.26.09.1.02.04,0-.1-.02-.47.05-.22,0-.02,0-.22-.08-.09-.01s-.07-.03-.08-.04c-.08-.05-.17-.1-.25-.15.03.02.15.12.01,0-.11-.1-.22-.2-.32-.31-.05-.06-.1-.11-.15-.17.1.13,0,0-.03-.06-.37-.61-.52-.99-.7-1.75,0,0-.05-.26-.03-.13s-.01-.14-.01-.13c-.02-.19-.02-.38-.02-.58,0-.16,0-.33.03-.49.02-.18,0-.04,0,0,.02-.11.04-.21.07-.32.05-.18.1-.37.17-.55.06-.16.02-.05,0-.02.03-.07.07-.14.11-.21.07-.13.15-.25.22-.37.09-.14,0-.01-.02.01.06-.08.12-.15.19-.22.11-.12.23-.24.36-.35.05-.05.11-.1.17-.14-.03.02-.15.11-.01.02.12-.08.24-.16.37-.23.07-.04.45-.2.23-.12.16-.06.31-.11.48-.15.07-.02.42-.08.29-.06s.23,0,.29,0c.09,0,.49.06.24,0,.16.03.31.08.47.12s-.02-.01-.04-.03c.06.03.12.06.18.09.12.06.23.14.35.21.14.09-.01,0-.03-.03.07.06.14.12.2.18s.13.13.19.2c.01.01.15.18.06.06-.07-.09.12.19.15.24s.19.36.14.24c-.07-.15.02.05.02.07.02.09.05.17.08.26s.04.17.06.26c0-.02-.02-.24-.02-.07,0,.13,0,.27,0,.4,0,.18,0-.04.01-.07-.02.07-.03.13-.05.2s-.04.13-.06.2c.05-.15.03-.06-.02.03-.05.08-.09.16-.15.25.08-.13.04-.04-.03.03-.05.05-.1.1-.15.15-.17.15.16-.09-.03.02-.06.03-.12.07-.18.1.17-.08.04,0-.04,0,.34.07-.4-.06-.02.02-.07-.01-.13-.03-.19-.05-.21-.07.18.11-.01,0-.08-.05-.36-.28-.2-.12-.05-.05-.1-.1-.15-.15-.02-.02-.19-.23-.11-.12.1.13-.06-.11-.08-.14-.01-.02-.15-.27-.09-.14.06.13-.03-.07-.03-.09-.03-.09-.05-.18-.08-.28,0-.02-.05-.25-.02-.08s0-.14,0-.17c0-.42.03-.59.18-1.04.22-.67.71-1.44,1.16-2.12l-2.05.54c.24.17.1.07.05.03.1.08.19.16.28.25.15.14.29.28.42.43.07.07.13.15.19.23.17.21-.17-.28.08.12.12.19.24.38.35.57.06.11.11.22.16.33-.03-.06-.08-.23.02.05.06.19.12.37.17.56.02.09.04.19.06.28-.05-.25,0-.03,0,.03.02.24.01.47,0,.71.02-.26-.04.2-.07.31-.03.09-.06.18-.09.28.08-.26.02-.03-.02.04-.03.05-.27.42-.16.28.12-.16-.03.03-.07.07-.07.07-.19.15-.25.24-.1.16.2-.12.03-.02-.07.04-.13.09-.19.13-.15.09-.3.17-.46.25.3-.14-.07.02-.18.05-.07.02-.15.04-.22.06-.1.02-.42.03-.05.02-.15,0-.3.02-.45.02-.07,0-.15-.01-.22-.01.31,0,.18.04.07,0-.07-.02-.14-.03-.21-.05-.02,0-.35-.13-.12-.03.2.08-.02-.01-.06-.04-.08-.05-.15-.09-.23-.14.28.18.09.07.01,0-.04-.03-.2-.21-.07-.06.17.19-.22-.39-.12-.18s-.05-.16-.05-.17c-.02-.08-.04-.16-.05-.24.01.08,0,.29.02.03,0-.12,0-.25.01-.37-.03.33.05-.11.07-.21.02-.07.11-.26-.01,0,.04-.08.07-.15.11-.22s.09-.14.13-.21c-.16.23-.05.06,0,.01.06-.05.12-.12.18-.17-.23.22.03,0,.1-.05.21-.14.07-.03-.01,0,.08-.03.16-.05.24-.07.33-.11-.14-.04.04-.01.08.01.17,0,.25,0,.05,0,.31.04.12,0s.07.02.11.04c.1.03.21.06.31.1-.2-.08-.06-.03.05.04.07.05.15.09.22.14.09.06.07.05-.05-.04.05.04.09.09.14.13.03.03.2.24.09.09-.12-.16.07.13.09.17.14.22.02.06,0,0,.03.11.09.39.06.12.01.09.01.18.01.26,0,.11-.09.39,0,.12-.02.07-.05.18-.06.26-.06.33.12-.16-.05.13-.04.08-.09.15-.13.23-.15.29.15-.11-.09.12-.06.06-.13.12-.19.19-.19.19.07-.03-.06.04-.1.05-.19.11-.29.16.24-.1-.05,0-.14.01l1.69.69c-.14-.19-.27-.39-.38-.6-.06-.12-.12-.23-.18-.35.07.14-.01-.03-.03-.08-.09-.25-.17-.5-.23-.76-.02-.1-.04-.21-.07-.31l-.03-.16c.01.11.02.11,0,0-.04-.42-.03-1.03,0-1.3-.02.12.04-.16.04-.19.03-.13.06-.26.09-.38.07-.25.16-.5.27-.75.31-.75-.34-1.65-1.05-1.85-.87-.24-1.53.3-1.85,1.05h0Z"/>
  <path class="cls-3" d="m65.32,77.33c-.6,2.23-.53,4.63.26,6.81.21.57.62.99,1.25,1.07.54.07,1.25-.18,1.49-.72,1.09-2.43.49-5.45-1.6-7.17-2.28-1.88-5.39-1.62-7.62.21s-2.62,5-1.18,7.43c1.52,2.56,4.64,3.72,7.44,2.61,2.65-1.05,4.56-3.48,4.55-6.39,0-1.28-.4-2.53-1.24-3.52s-2.21-1.54-3.49-1.4c-2.92.32-5.23,3.3-4.14,6.21.54,1.43,1.65,2.64,3.16,3.06s3.08-.09,4.19-1.13,1.62-2.64,1.15-4.08-1.63-2.5-3.04-2.83c-1.52-.36-3,.21-3.9,1.48-.7,1-.89,2.46-.45,3.6.29.74.73,1.28,1.37,1.74s1.7.13,2.05-.54c.41-.78.14-1.56-.54-2.05.32.23.04,0-.02-.04.18.12.11.19.04.06-.05-.08-.17-.38-.04-.01-.02-.07-.05-.13-.07-.2-.03-.1-.05-.42-.02-.02,0-.07-.01-.14-.01-.21,0-.11,0-.21.01-.32-.01.24-.03.17.02-.03.02-.07.05-.14.06-.21-.09.35-.03.07.02-.03.03-.06.08-.12.11-.18-.18.31-.03.06.04-.02.06-.07.21-.13-.06.03.09-.06.18-.11.28-.16-.07.04-.29.08-.03.03.08-.02.15-.04.23-.05-.18.02-.22.03-.1.03.06.03.23,0,.3.01-.34-.03-.12-.02-.05.01.06.02.42.16.09.01.07.03.15.07.22.11.05.03.37.26.1.04.06.05.12.11.18.16.04.04.29.35.09.06.07.1.13.21.19.31.17.26.01-.13.02.03,0,.08.06.21.08.29-.08-.32-.01-.08-.02.03,0,.1-.07.35,0,.04-.02.08-.05.16-.06.24-.07.34.15-.19-.04.11-.04.07-.09.15-.13.22-.1.14-.1.14,0,0-.04.05-.08.1-.13.14-.07.08-.15.15-.23.22.22-.19,0-.01-.06.03-.09.06-.19.11-.28.16.26-.14.02-.01-.06.01-.1.03-.21.05-.31.08.25-.08.12,0,.02,0-.13,0-.25,0-.38,0,.34.03-.06-.04-.11-.05-.36-.09.2.15-.12-.05-.07-.04-.15-.09-.23-.13-.35-.19.11.12-.06-.04-.08-.07-.16-.15-.24-.23,0,0-.26-.32-.14-.15s-.11-.19-.11-.18c-.06-.1-.11-.19-.15-.29-.05-.1-.04-.08.02.05-.03-.08-.06-.17-.08-.25-.02-.09-.04-.17-.06-.26.08.33,0-.05,0-.13,0-.09,0-.18,0-.26,0,.3-.02.07.01-.03s.06-.2.08-.29c.09-.32-.11.09.02-.03.06-.06.11-.19.15-.26.15-.29-.15.13.06-.09.14-.15.28-.3.44-.43-.27.22.05-.02.1-.05.07-.04.14-.08.21-.12.32-.2-.27.06.09-.04.08-.02.15-.05.23-.07.01,0,.39-.1.15-.04-.21.05.22,0,.28,0,.08,0,.16,0,.24.01-.39-.04,0,.02.07.04.26.06.04,0-.02-.02.1.05.2.1.29.16.06.04.12.08.18.12-.31-.21-.04-.02.02.04.05.05.1.1.14.15.22.23-.12-.22.02.03.06.12.27.56.14.21.06.17.12.34.17.52.03.11.04.22.07.33,0-.05-.03-.34-.01-.06.01.23.02.46,0,.69,0,.1-.02.19-.02.29,0,.23.08-.35,0,0-.05.19-.08.38-.14.57-.03.11-.27.63-.1.3-.1.19-.19.38-.31.56-.05.08-.11.16-.16.24.18-.24-.02.01-.07.07-.16.18-.34.36-.52.52-.04.04-.29.23-.1.09-.08.06-.16.12-.24.17-.25.16-.5.3-.77.43.23-.11-.06.02-.12.04-.11.04-.23.08-.35.11s-.23.06-.35.09c-.07.01-.38.05-.1.03-.24.03-.48.02-.72.02-.29,0-.11,0-.04,0-.17-.02-.34-.06-.51-.11-.08-.02-.16-.05-.25-.08-.38-.12.23.15-.12-.05-.17-.1-.34-.19-.5-.3-.06-.04-.28-.23-.06-.04-.08-.07-.16-.14-.24-.22s-.15-.15-.23-.23c-.06-.07-.26-.3-.1-.1-.13-.17-.25-.36-.35-.55-.06-.11-.12-.23-.18-.35.03.05.1.27,0,0-.07-.2-.14-.41-.18-.62,0,0-.06-.42-.04-.18.02.2,0-.27-.01-.31,0-.09,0-.17,0-.26,0-.4-.08.27,0-.12.05-.21.1-.41.17-.61.03-.08.13-.22,0,.01.06-.11.11-.22.18-.33.04-.07.09-.14.13-.21.17-.29-.14.13.07-.09.17-.19.35-.36.53-.53.29-.27-.24.14.09-.07.11-.07.21-.14.32-.2.07-.04.15-.08.22-.12.07-.04.15-.08.23-.11-.17.07-.17.07-.01,0,.2-.07.4-.13.6-.18.06-.01.47-.07.09-.03.12-.01.25-.02.37-.03s.25,0,.37,0c.32,0-.24-.07.1,0,.24.06.48.11.72.21-.06-.02-.26-.14-.03,0,.12.07.24.14.36.21.07.04.28.22.04.01.09.08.18.16.27.24s.17.17.25.26c.05.06.26.35.07.07.14.2.27.4.38.62.04.07.07.15.11.22-.15-.33.02.08.05.15.07.21.12.43.16.65.08.38,0-.31,0,.08,0,.12.01.24,0,.36,0,.09-.03.21-.02.3-.01.11,0,.08.02-.1-.01.08-.03.16-.04.24-.02.08-.04.16-.06.23-.02.07-.21.55-.06.21l2.74.36c-.33-.92-.51-1.75-.55-2.59-.04-1.02.04-1.68.29-2.63.2-.76-.25-1.66-1.05-1.85s-1.63.24-1.85,1.05h0Z"/>
  <path class="cls-3" d="m115.04,93.61c6.1-3.34,12.45-6.17,19.02-8.44,1.86-.64,1.09-3.18-.8-2.89-.95.15-1.9.29-2.86.44-.8.12-1.24,1.13-1.05,1.85.24.86,1.04,1.17,1.85,1.05.95-.15,1.9-.29,2.86-.44l-.8-2.89c-6.81,2.35-13.42,5.28-19.74,8.74-1.69.93-.18,3.52,1.51,2.59h0Z"/>
  <path class="cls-3" d="m110.49,100.45c4.28-1.39,8.82-1.37,13.08.05l-.36-2.74c-1.18.66-2.45.9-3.79.8-.81-.06-1.5.73-1.5,1.5,0,.86.69,1.44,1.5,1.5,1.85.14,3.69-.3,5.31-1.21,1.18-.66.82-2.35-.36-2.74-4.73-1.58-9.94-1.59-14.68-.05-1.83.6-1.05,3.49.8,2.89h0Z"/>
  <path class="cls-3" d="m69.22,97.85c1.28-.3,1.94-1.64,1.57-2.87-.42-1.42-1.96-1.84-3.21-2.23-3.35-1.05-6.79-1.79-10.27-2.25-7-.93-14.09-.61-21,.85-1.89.4-1.09,3.29.8,2.89,5.28-1.12,10.69-1.51,16.08-1.16,2.62.17,5.23.52,7.81,1.05,1.35.28,2.7.6,4.03.98.59.17,1.18.34,1.77.52.31.1.66.28.98.32.07.02.14.04.2.08.4.25.56-.11.46-1.08-1.88.45-1.08,3.34.8,2.89h0Z"/>
  <path class="cls-3" d="m69.08,98.61c-1.98-2.42-5.16-3.1-8.16-3.03-3.71.08-7.47.97-11.1,1.7-2.05.42-4.1.87-6.14,1.35-1.7.41-3.7.66-5.19,1.65-2.62,1.74-1.76,6.2,1.7,5.69,1.9-.28,1.09-3.17-.8-2.89.64-.09.26.1.78-.31.4-.32,1-.42,1.49-.55,1.4-.37,2.81-.7,4.23-1.03,2.83-.65,5.67-1.23,8.52-1.75,3.83-.69,9.64-2.26,12.54,1.29,1.22,1.5,3.33-.64,2.12-2.12h0Z"/>
  <path class="cls-3" d="m67.63,99.86c-2.63,1.34-5.15,2.91-7.5,4.7-1.18.9-2.43,2.06-2.34,3.69s1.7,3.27,3.44,2.71c.75-.24,1.3-1.05,1.05-1.85-.24-.75-1.05-1.3-1.85-1.05-.25.08.16.01.26.03l.16.08c-.12-.07-.13-.07-.03,0,.14.08-.09-.13.06.09-.08-.11-.12-.34-.07-.07-.02-.07-.02-.34-.04-.15-.04.28.11-.35.01.11.05-.26-.06.05.01-.07.06-.09.11-.19.17-.29-.13.23.06-.07.11-.12.08-.08.16-.16.25-.24s.17-.15.26-.23c.02-.01.37-.29.13-.11.46-.35.93-.69,1.41-1.03,1.93-1.35,3.95-2.56,6.04-3.63.7-.36.96-1.4.54-2.05-.46-.71-1.3-.92-2.05-.54h0Z"/>
  <path class="cls-3" d="m105.1,102.79c1.71-.17,2.87-.04,4.45.47.19.06.38.13.56.2.09.04.19.07.28.11-.13-.06-.11-.05.05.02.36.17.72.34,1.06.54s.68.41,1,.65c.08.06.16.12.24.18-.11-.08-.09-.07.05.04.15.13.3.26.45.39.58.53,1.55.62,2.12,0,.53-.57.62-1.56,0-2.12-2.77-2.5-6.54-3.84-10.27-3.48-.78.08-1.54.64-1.5,1.5.03.75.66,1.58,1.5,1.5h0Z"/>
  <path class="cls-3" d="m95.03,103.21c.15-1.07.14-2.08-.33-3.07-.33-.7-.96-1.31-1.65-1.64-1.55-.76-3.34-.67-4.98-.31-1.51.33-3,.94-4.19,1.93-1.55,1.29-2.41,3.3-2.09,5.3.4,2.47,2.84,3.68,5.13,3.7.78,0,1.54-.69,1.5-1.5s-.66-1.49-1.5-1.5c-.17,0-.52.05-.67-.04l.19.03c-.07-.01-.13-.02-.2-.04-.1-.02-.19-.04-.29-.07s-.18-.05-.27-.08c-.22-.08-.14-.16.02.02-.09-.1-.33-.18-.45-.25-.29-.17.05.04.04.04-.02,0-.16-.14-.18-.16-.05-.05-.1-.12-.16-.17-.21-.19.18.31.05.06-.06-.11-.13-.21-.19-.32-.16-.27.09,0,.03.09.01-.02-.08-.25-.09-.28-.02-.07-.03-.15-.05-.22-.08-.28.01.39.01.1,0-.15-.02-.31,0-.46,0-.05.01-.11.01-.16,0-.3-.09.37-.01.08.05-.18.08-.37.14-.55.03-.08.07-.16.09-.24-.09.38-.07.17,0,.05s.14-.26.22-.38c.05-.08.1-.15.15-.22.18-.27-.23.26-.01.01.15-.17.29-.33.46-.48.07-.07.15-.13.22-.2.24-.22-.21.13-.03.02.1-.06.18-.13.28-.19.24-.15.49-.28.74-.4.11-.05.22-.09.32-.15-.48.24,0,0,.12-.04.29-.11.59-.2.89-.28s.62-.16.93-.21c.08-.01.16-.03.24-.04.33-.06-.04.06-.08,0,.03.03.42-.04.47-.04.3-.02.61-.02.91,0,.07,0,.15.01.22.02.23,0-.17-.02-.18-.03.14.06.33.06.48.1s.3.12.44.15c-.35-.06-.28-.13-.12-.04.06.03.11.06.17.09s.1.07.16.1c.2.12-.3-.29-.06-.04.04.04.09.09.13.13.25.24-.15-.26-.04-.06.03.05.07.11.1.16.17.28-.05-.18-.03-.09.04.15.08.29.13.44.08.27-.01-.39-.01-.1,0,.11.02.22.02.33,0,.09,0,.17,0,.26,0,.1-.06.54,0,.07-.11.77.19,1.65,1.05,1.85.71.16,1.73-.22,1.85-1.05h0Z"/>
  <path class="cls-3" d="m92.08,104.06c.3-.59.44-1.19.54-1.83.17-1.04-.41-1.79-1.45-1.9-3.2-.35-6.56.99-8.7,3.4-.62.7-.58,1.86.3,2.36s1.88.75,2.86.46c.83-.24,1.54-.86,1.94-1.62.72-1.39.76-3.3-.16-4.62-.52-.75-1.26-1.31-2.17-1.47-1.18-.21-2.34.13-3.37.7-1.09.61-2.04,1.63-2.28,2.89-.22,1.2.09,2.41.75,3.43,1.36,2.11,4.1,3.89,6.7,3.57.78-.09,1.54-.62,1.5-1.5-.03-.73-.67-1.6-1.5-1.5-.19.02-.38.04-.58.03-.1,0-.2-.01-.29-.02-.33-.02.3.07-.03,0-.2-.05-.4-.09-.6-.15-.1-.03-.2-.06-.3-.1-.04-.02-.08-.04-.13-.05-.17-.05.35.16.07.03-.39-.19-.76-.39-1.11-.64,0,0-.12-.11-.15-.11,0,0,.24.2.12.09-.08-.07-.17-.13-.25-.21-.17-.15-.33-.31-.49-.47-.07-.08-.14-.15-.21-.23-.03-.04-.07-.1-.11-.14,0,0,.18.26.1.13-.11-.18-.24-.35-.34-.53-.05-.08-.08-.17-.13-.25-.08-.12.07.17.07.17,0-.04-.05-.12-.06-.15-.06-.18-.1-.37-.15-.56-.04-.14.03.22.03.21,0-.04-.01-.12-.01-.15,0-.07,0-.15,0-.22,0-.03.02-.11.01-.15,0,0-.07.35-.03.22.03-.09.05-.19.07-.29.07-.31-.14.24-.03.04.05-.08.08-.16.13-.24.03-.04.06-.09.09-.13.07-.12-.1.14-.11.14.08-.03.17-.19.24-.25.04-.04.09-.08.14-.12.11-.1.05.01,0,0-.03,0-.13.09,0,0,.06-.04.11-.08.17-.11.11-.07.22-.13.33-.19.07-.04.45-.21.21-.11s.06-.02.13-.04c.08-.03.17-.06.26-.08.08-.02.16-.04.24-.06.33-.08-.24,0-.07,0,.14,0,.28,0,.42,0,.21,0-.37-.09-.18-.02.06.02.14.04.21.05.26.05-.16-.08-.14-.07.04.03.11.05.16.08.05.03.09.07.14.09,0,0-.3-.28-.12-.08.04.04.08.08.12.12.18.18-.11-.17-.1-.13.04.1.13.22.19.32.13.24-.09-.24-.06-.15.02.06.04.11.06.17.04.12.06.25.09.38.06.26-.02-.36-.02-.17,0,.05.01.1.01.16,0,.14,0,.28,0,.42,0,.05-.01.1-.01.16,0,.2.08-.43.02-.17-.03.13-.05.25-.09.37-.02.06-.05.13-.07.19-.06.2.19-.39.05-.13-.06.11-.14.22-.2.33-.07.13.29-.3.09-.12-.04.04-.09.09-.13.13-.18.2.25-.15.13-.09-.05.02-.13.07-.18.1-.18.13.37-.1.15-.06-.04,0-.15.03-.18.05,0,0,.45-.02.16-.03-.06,0-.15-.02-.21,0,0,0,.43.09.13.01-.08-.02-.15-.04-.23-.06-.03,0-.06-.02-.09-.03-.24-.06.27.14.15.06-.09-.05-.19-.09-.29-.15l.3,2.36c.23-.25.46-.5.71-.72.13-.11.26-.22.39-.33-.27.22.16-.11.21-.14.28-.19.57-.37.87-.53.15-.08.3-.15.45-.23.16-.07.15-.07,0,0,.08-.03.16-.06.24-.09.32-.12.64-.22.97-.31.16-.04.33-.08.49-.11.07-.01.61-.09.23-.05.68-.08,1.35-.08,2.03-.01l-1.45-1.9c-.04.23-.08.46-.13.69-.03.12-.07.24-.09.36-.06.3.12-.21-.02.06-.36.7-.2,1.66.54,2.05.69.36,1.67.21,2.05-.54h0Z"/>
  <path class="cls-3" d="m91.58,104.1c.46-1.6.04-3.26-1.05-4.5s-2.63-1.67-4.16-1.38-2.81,1.51-3.34,2.95c-.44,1.21-.22,2.62.38,3.73.37.67.9,1.22,1.53,1.65.68.48,1.48.68,2.29.76s1.53-.74,1.5-1.5c-.04-.88-.66-1.42-1.5-1.5-.28-.03.4.07.13.02-.04,0-.09-.02-.13-.02-.1-.02-.21-.05-.31-.08-.02,0-.17-.07-.18-.06,0,0,.37.17.19.08-.11-.06-.22-.11-.33-.18-.12-.08-.39-.32,0,.02-.08-.07-.15-.13-.23-.2s-.14-.14-.21-.22c-.22-.25.21.3.01.02-.11-.16-.21-.34-.29-.52-.11-.23.14.38.06.14-.01-.04-.03-.07-.04-.11-.04-.11-.07-.23-.09-.34-.03-.15-.03-.5,0,.05,0-.1-.02-.2-.02-.29s0-.2.01-.29c0-.11.06-.27-.03.22.01-.07.02-.14.04-.2.02-.09.04-.17.07-.26.02-.06.04-.11.06-.17-.13.42-.13.3-.08.19.05-.09.09-.18.14-.27.03-.05.07-.1.1-.16.13-.2-.25.29-.08.1.07-.08.14-.16.22-.24.1-.1.43-.29.01-.03.11-.07.22-.15.34-.22.05-.03.09-.05.14-.08.05-.02.09-.05.14-.07-.23.09-.29.12-.18.08.11-.03.21-.07.32-.1.07-.02.14-.02.21-.04-.4.11-.31.03-.19.03s.23-.01.35,0c.14,0,.32.08-.13-.03.07.02.13.02.2.04.11.03.22.06.32.1.22.07-.19-.07-.17-.08.03,0,.15.07.18.09.1.05.2.11.29.17.04.02.07.06.11.08-.39-.24-.17-.13-.07-.04.09.08.18.17.26.27.09.11.15.28-.06-.09.03.06.08.11.12.17.08.12.14.24.2.36.05.1.04.21-.07-.17.02.08.06.15.08.23.04.13.06.25.09.38.06.28-.03-.4-.02-.11,0,.07,0,.15.01.22,0,.06,0,.12,0,.18,0,.15-.09.39.02-.06-.04.15-.06.31-.1.46-.22.75.26,1.67,1.05,1.85s1.61-.24,1.85-1.05h0Z"/>
  <path class="cls-3" d="m93.56,103.18c.03-1.38-.8-2.61-2-3.23-1.1-.57-2.38-.79-3.61-.73-.62.03-1.25.11-1.85.28-.53.15-1.08.36-1.54.67-.57.39-1.03.86-1.3,1.5s-.31,1.34-.09,1.99c.26.74.71,1.37,1.28,1.91.69.67,1.51,1.22,2.34,1.7.24.14.48.27.73.4.35.19.77.26,1.16.15.35-.1.73-.36.9-.69.37-.7.2-1.66-.54-2.05s-1.48-.83-2.15-1.35l.3.23c-.4-.31-.77-.65-1.08-1.04l.23.3c-.15-.19-.28-.4-.38-.63l.15.36c-.06-.14-.1-.29-.12-.44l.05.4c-.01-.12-.02-.24,0-.35l-.05.4c.02-.11.05-.22.09-.33l-.15.36c.05-.12.12-.22.19-.33l-.23.3c.11-.14.23-.26.37-.36l-.3.23c.22-.17.47-.3.72-.41l-.36.15c.46-.19.94-.31,1.43-.38l-.4.05c.62-.08,1.25-.09,1.87,0l-.4-.05c.45.06.89.17,1.31.34l-.36-.15c.26.11.5.24.73.41l-.3-.23c.15.12.29.25.41.4l-.23-.3c.1.13.19.28.25.43l-.15-.36c.06.15.11.32.13.48l-.05-.4c.01.11.02.22.02.33-.02.78.7,1.54,1.5,1.5s1.48-.66,1.5-1.5h0Z"/>
  <path class="cls-3" d="m88.48,101.94c-1.66-1.89-4.86-3.26-6.94-1.19-1.11,1.1-1.59,2.86-1.21,4.37.33,1.33,1.35,2.43,2.53,3.08,1.36.75,2.96,1.03,4.48.67.77-.18,1.29-1.1,1.05-1.85-.26-.8-1.03-1.24-1.85-1.05-.15.04-.59.07-.02.02-.1,0-.21.02-.31.03-.24.01-.48,0-.73-.03-.19-.01.43.07.18.02-.06-.01-.13-.02-.19-.03-.11-.02-.21-.05-.32-.07s-.21-.06-.31-.09c-.06-.02-.12-.04-.18-.07-.32-.12.19.09.09.04-.2-.1-.41-.2-.6-.32-.1-.06-.19-.13-.29-.2-.15-.1.32.26.13.1-.06-.05-.13-.11-.19-.16-.08-.07-.15-.14-.22-.22-.1-.11-.28-.41,0,.02-.06-.09-.13-.18-.19-.28-.08-.14-.23-.56-.05-.05-.07-.19-.11-.38-.17-.58.11.45.03.3.02.15,0-.06,0-.13,0-.19,0-.17.1-.58-.02-.06.05-.23.1-.46.18-.68.1-.29-.16.33-.03.07.03-.07.07-.13.1-.2.07-.12.15-.23.22-.35-.25.41-.1.13.01.02.04-.04.09-.08.13-.12.18-.16-.29.2-.14.11.09-.05.18-.1.26-.15.18-.11-.23.12-.21.09.02-.03.17-.06.2-.07.2-.05.39,0-.08,0,.1,0,.2-.02.3-.01.16,0,.52.08-.04-.02.11.02.22.04.33.07s.22.06.33.1c.06.02.11.04.17.06-.47-.17-.25-.11-.14-.05.24.11.47.25.69.39.1.07.2.14.3.22-.45-.33-.07-.05.03.04.2.17.38.36.55.55.52.59,1.6.57,2.12,0,.58-.63.55-1.49,0-2.12h0Z"/>
  <path class="cls-3" d="m35.21,67.07c1.32,9.31,2.74,18.61,3.9,27.93s1.85,18.36.75,27.51c-1.74,14.36-8.99,29.71-23.24,35.24-7.3,2.84-15.7,3.01-22.63-.93-1.68-.96-3.19,1.64-1.51,2.59,6.49,3.69,14.24,4.25,21.4,2.38s13.9-6.42,18.62-12.45c11-14.05,11.92-32.64,10.15-49.69-1.16-11.16-2.97-22.27-4.55-33.38-.27-1.9-3.16-1.09-2.89.8h0Z"/>
  <path class="cls-3" d="m118.63,59.36c-.32,13.83-.63,27.87-4.49,41.26-3.6,12.49-10.05,24.06-12.56,36.88-2.49,12.74-.78,25.7.85,38.43s3.31,26.02.11,38.71c-3.35,13.32-11.5,25.85-10.19,40.04l1.9-1.45c-1.15-.31-1.81-1.24-1.77-2.42.06-1.93-2.94-1.93-3,0-.08,2.49,1.58,4.67,3.97,5.31.87.23,1.99-.45,1.9-1.45-1.17-12.7,5.57-24.19,9.16-35.96,3.78-12.38,3.06-25.22,1.53-37.91-1.54-12.75-3.8-25.68-2.21-38.54s8.04-24.98,12.14-37.43c4.83-14.68,5.31-30.17,5.66-45.48.04-1.93-2.96-1.93-3,0h0Z"/>
  <path class="cls-4" d="m59.63,81.76h1.26c.21,0,.4-.04.58-.13.19-.06.35-.16.48-.31.15-.14.25-.3.31-.48.09-.18.14-.37.13-.58l-.05-.4c-.07-.25-.2-.47-.39-.66l-.3-.23c-.23-.14-.49-.2-.76-.2h-1.26c-.21,0-.4.04-.58.13-.19.06-.35.16-.48.31-.15.14-.25.3-.31.48-.09.18-.14.37-.13.58l.05.4c.07.25.2.47.39.66l.3.23c.23.14.49.2.76.2h0Z"/>
  <path class="cls-1" d="m101.74,80.08c1.93,0,1.93-3,0-3s-1.93,3,0,3h0Z"/>
  <path class="cls-1" d="m100.41,79.9l1.27-.84c.17-.09.32-.22.42-.39.13-.14.22-.31.27-.51.06-.2.07-.4.03-.6,0-.2-.07-.39-.18-.56l-.23-.3c-.19-.19-.41-.31-.66-.39l-.4-.05c-.27,0-.52.07-.76.2l-1.27.84c-.17.09-.32.22-.42.39-.13.14-.22.31-.27.51-.06.2-.07.4-.03.6,0,.2.07.39.18.56l.23.3c.19.19.41.31.66.39l.4.05c.27,0,.52-.07.76-.2h0Z"/>
  <path class="cls-2" d="m98.97,79.42v.23c0,1.93,3,1.93,3,0v-.23c0-1.93-3-1.93-3,0v.23c0,1.93,3,1.93,3,0v-.23c0-1.93-3-1.93-3,0h0Z"/>
  <path class="cls-3" d="m87.19,102.39c1.23,1.51,3.11,2.36,5.04,2.46l-1.06-2.56c-.56.57-1.12,1.14-1.73,1.66-.07.06-.15.12-.22.18-.19.15.16-.11-.04.03-.15.11-.31.22-.47.32-.14.09-.28.17-.43.25-.08.05-.17.09-.25.13-.39.2.25-.08-.16.07-.18.07-.36.12-.54.17-.13.03-.57.07-.19.05-.13,0-.27.02-.4.02-.12,0-.59-.06-.23,0-.31-.05-.59-.14-.89-.24.35.11-.07-.04-.15-.09-.06-.04-.13-.08-.19-.12-.04-.03-.27-.23-.12-.08s-.17-.18-.21-.21c-.04-.04-.16-.23-.05-.05s0-.02-.03-.07c-.03-.06-.06-.13-.1-.19-.09-.12.04.09.05.11-.02-.07-.05-.14-.06-.2-.01-.05-.03-.11-.04-.16-.02-.11-.02-.07.02.12-.02-.01,0-.22,0-.22-.02-.25,0,.1-.02.08-.06-.06.23-.55.01-.15.06-.1.14-.22.18-.33.07-.18-.18.17-.04.05.07-.06.12-.14.19-.2.05-.05.11-.09.16-.15-.22.21-.12.08-.04.04.13-.07.26-.14.38-.21-.32.18.03,0,.15-.03.04-.01.18-.06.21-.04-.09-.04-.3,0-.03.02.07,0,.14.01.21,0,.19,0-.25-.09-.08,0,.05.03.14.05.21.06.18.03-.2-.14-.06-.02.05.04.12.08.18.11.16.07-.13-.07-.11-.08.01,0,.12.12.14.14.22.2-.14-.26,0,0,.03.06.07.12.1.17.15.22-.05-.21,0-.04.04.14.09.29.12.43.07.29-.03-.1-.01-.1,0,0,.01.24.01.25,0,.07-.01.14,0,.2.02.18.07-.32,0-.05-.01.05-.09.48-.14.48-.02,0,.18-.34.03-.09-.04.07-.1.14-.12.21-.07.16.08-.14.09-.11,0,.02-.19.2-.2.21-.16.18.07-.09.07-.05,0,.03-.24.14-.26.15l2.2.9c-.02-.08-.03-.16-.05-.25.03.13.01.19.01.03,0-.1,0-.21,0-.31,0-.03.02-.31,0-.11s.02-.07.02-.11c.02-.08.04-.16.06-.24s.06-.16.08-.24c.05-.2-.15.28.02-.05.08-.15.16-.29.25-.44.08-.12.07-.11-.01,0,.05-.06.11-.13.16-.19s.12-.12.18-.18c0,0,.29-.23.14-.12-.14.1.08-.05.1-.06.09-.06.18-.1.27-.15l-1.16.15-.15-.07c.12.07.13.08.03.02-.03-.04-.26-.3-.1-.07-.07-.1-.06-.21-.04-.04-.01-.09.04-.48-.03-.24-.21.75.26,1.67,1.05,1.85s1.62-.24,1.85-1.05c.32-1.12-.14-2.26-1.06-2.93-.6-.44-1.3-.52-1.97-.19-.4.21-.79.51-1.11.82-1.31,1.28-1.84,3.19-1.44,4.96.22.99,1.39,1.32,2.2.9,1.73-.9,2.44-3.21,1.77-5-.4-1.05-1.12-1.85-2.18-2.26-.99-.39-2.08-.24-3.03.19-2.04.92-2.97,3.29-1.98,5.31.85,1.73,3,2.7,4.87,2.56,2.58-.19,4.54-2,6.26-3.77.93-.96.23-2.5-1.06-2.56-.07,0-.62-.08-.29-.02-.18-.04-.36-.07-.54-.12-.13-.04-.27-.08-.4-.13-.16-.06-.17-.07-.03,0-.08-.04-.17-.08-.25-.12-.16-.09-.32-.18-.48-.28-.05-.03-.36-.28-.14-.1-.29-.24-.54-.5-.78-.79-.5-.61-1.61-.56-2.12,0-.6.65-.53,1.47,0,2.12h0Z"/>
  <path class="cls-3" d="m87.97,104.76c-1.48,4.21-5.11,7.5-9.41,8.63l.58,1.37c2.24-1.67,4.48-3.34,6.72-5.01.33-.24.49-.65.27-1.03-.18-.32-.7-.51-1.03-.27-2.24,1.67-4.48,3.34-6.72,5.01-.65.48-.3,1.6.58,1.37,4.83-1.27,8.8-4.98,10.46-9.68.32-.91-1.13-1.3-1.45-.4h0Z"/>
  <path class="cls-3" d="m85.02,103.84c.08,3.03,1.72,5.95,4.35,7.5s6.27,1.55,9-.04c.83-.49.08-1.78-.76-1.3-2.28,1.33-5.2,1.38-7.48.04s-3.55-3.7-3.61-6.2c-.02-.96-1.53-.97-1.5,0h0Z"/>
  <path class="cls-3" d="m40.33,62.71l-.67,1.58h2.59c-3.54-7.13-5.64-14.98-6.08-22.93-.11-1.92-.12-3.85-.04-5.78.05-1.25-.07-3.5.98-4.43,1.13-1,3.83.77,4.93,1.29,1.73.82,3.42,1.71,5.08,2.66,3.91,2.25,7.59,4.87,11.01,7.82,1.45,1.26,3.59-.86,2.12-2.12-3.44-2.97-7.13-5.65-11.04-7.96-1.97-1.16-3.99-2.22-6.06-3.18-1.82-.85-4-2.15-6.08-1.74-4.18.83-3.97,6.41-4,9.65-.04,4.58.46,9.17,1.43,13.64,1.09,5.06,2.85,9.95,5.16,14.58.46.94,2.16,1.03,2.59,0l.67-1.58c.32-.75.22-1.6-.54-2.05-.63-.38-1.74-.21-2.05.54h0Z"/>
  <path class="cls-5" d="m44.7,59.03c-1.89-4.04-3.13-8.61-3.14-13.1,0-2.04.46-4.3,2.27-5.51,1.47-.99,4.1-.57,4.25,1.54.07.96,1.57.96,1.5,0-.15-2.1-2.04-3.68-4.14-3.61-2.41.08-4.24,2.14-4.93,4.3-.85,2.69-.39,5.77.11,8.49.55,3,1.51,5.89,2.81,8.65.41.87,1.7.11,1.3-.76h0Z"/>
  <path class="cls-5" d="m109.43,42.76c-.08-.74.45-1.31,1.16-1.53.82-.25,1.58.14,2.1.79,1.46,1.85.5,4.38-.21,6.32-.14.38.16.82.52.92.42.11.78-.14.92-.52.81-2.2,1.54-4.59.45-6.83-.9-1.85-3.04-2.88-4.93-1.81-.94.53-1.64,1.55-1.52,2.66.04.4.31.75.75.75.37,0,.79-.34.75-.75h0Z"/>
</svg>